<svg width="138" height="65" viewBox="0 0 138 65" fill="none" xmlns="http://www.w3.org/2000/svg">
<path d="M87.3411 27.6222L84.7862 23.3131L82.2313 27.6222H78.2082L82.6507 20.3959L78.6658 13.9514H82.4982L84.7481 17.7457L86.9979 13.9514H90.8685L86.8073 20.3959L91.2307 27.6222H87.3411ZM96.2744 27.9273C94.622 27.9273 93.3445 27.5777 92.442 26.8786C91.5396 26.1795 90.9993 25.1944 90.8214 23.9233H94.4059C94.5203 24.3681 94.7428 24.705 95.0732 24.9338C95.4164 25.1626 95.874 25.277 96.446 25.277C96.9926 25.277 97.3867 25.1944 97.6282 25.0291C97.8824 24.8512 98.0095 24.6097 98.0095 24.3046C98.0095 24.1775 97.9777 24.0694 97.9142 23.9805C97.8633 23.8788 97.7744 23.7961 97.6472 23.7326C97.4184 23.6055 97.107 23.5101 96.713 23.4466C96.3189 23.383 95.8931 23.3258 95.4355 23.275C94.9652 23.2114 94.4822 23.1288 93.9864 23.0271C93.5034 22.9127 93.0585 22.7411 92.6518 22.5123C92.2323 22.2962 91.8955 21.9848 91.6412 21.5781C91.3997 21.1713 91.279 20.6374 91.279 19.9765C91.279 18.896 91.6921 18.0189 92.5183 17.3453C93.3445 16.6589 94.5394 16.3157 96.1028 16.3157C97.768 16.3157 99.001 16.6589 99.8018 17.3453C100.603 18.0189 101.086 18.9087 101.251 20.0146H97.8379C97.7616 19.6205 97.571 19.3282 97.2659 19.1375C96.9736 18.9341 96.5732 18.8325 96.0647 18.8325C95.5308 18.8325 95.1559 18.9214 94.9398 19.0994C94.7237 19.2773 94.6156 19.4998 94.6156 19.7667C94.6156 20.1099 94.8381 20.3387 95.283 20.4531C95.7406 20.5675 96.3761 20.6756 97.1896 20.7773C97.6727 20.8408 98.1557 20.9298 98.6387 21.0442C99.1344 21.1586 99.592 21.3302 100.012 21.559C100.418 21.7878 100.749 22.1056 101.003 22.5123C101.257 22.9064 101.384 23.4275 101.384 24.0758C101.384 24.4444 101.333 24.794 101.232 25.1245C101.143 25.4549 101.009 25.7664 100.831 26.0587C100.45 26.6307 99.878 27.0883 99.1154 27.4315C98.3654 27.762 97.4184 27.9273 96.2744 27.9273ZM107.96 27.9082C106.168 27.9082 104.789 27.4442 103.823 26.5163C102.869 25.5884 102.393 24.2029 102.393 22.3598V22.0166C102.393 21.3937 102.45 20.8217 102.564 20.3006C102.691 19.7667 102.876 19.2901 103.117 18.8706C103.588 18.0317 104.242 17.4025 105.081 16.983C105.933 16.5508 106.899 16.3347 107.979 16.3347C108.539 16.3347 109.06 16.3919 109.543 16.5063C110.026 16.608 110.477 16.7669 110.896 16.983C111.735 17.4152 112.384 18.0571 112.841 18.9087C113.312 19.7477 113.547 20.7836 113.547 22.0166V22.3598C113.547 22.9699 113.49 23.5356 113.375 24.0567C113.261 24.5652 113.089 25.0228 112.86 25.4295C112.39 26.2557 111.735 26.8786 110.896 27.2981C110.07 27.7048 109.092 27.9082 107.96 27.9082ZM107.979 24.9147C108.615 24.9147 109.123 24.6986 109.505 24.2665C109.899 23.8343 110.096 23.186 110.096 22.3217V22.0166C110.096 21.1141 109.911 20.4341 109.543 19.9765C109.187 19.5061 108.672 19.271 107.998 19.271C107.35 19.271 106.829 19.4998 106.435 19.9574C106.041 20.4023 105.844 21.0887 105.844 22.0166V22.3217C105.844 23.1733 106.041 23.8216 106.435 24.2665C106.829 24.6986 107.344 24.9147 107.979 24.9147ZM118.536 27.6222H115.027V12.9409H118.536V27.6222ZM123.973 27.6222H120.464V12.9409H123.973V27.6222ZM130.232 25.3723C130.461 25.3723 130.677 25.3469 130.88 25.2961C131.084 25.2452 131.274 25.1626 131.452 25.0482C131.796 24.8321 132.062 24.5588 132.253 24.2283C132.456 23.8851 132.558 23.5356 132.558 23.1797V22.5123C132.393 22.6394 132.183 22.7411 131.929 22.8174C131.687 22.8937 131.401 22.9636 131.071 23.0271C130.601 23.1161 130.251 23.1924 130.022 23.2559C129.794 23.3195 129.59 23.4085 129.412 23.5229C129.26 23.6373 129.145 23.7707 129.069 23.9233C128.993 24.0631 128.955 24.222 128.955 24.3999C128.955 24.7177 129.063 24.9592 129.279 25.1245C129.495 25.2897 129.813 25.3723 130.232 25.3723ZM133.092 27.6222L132.711 25.7727C132.393 26.3956 131.923 26.9104 131.3 27.3171C130.677 27.7112 129.851 27.9082 128.821 27.9082C127.626 27.9082 126.73 27.6413 126.133 27.1074C125.548 26.5735 125.256 25.849 125.256 24.9338C125.256 24.2601 125.383 23.7072 125.637 23.275C125.904 22.8301 126.26 22.4678 126.705 22.1882C126.857 22.0992 127.003 22.0166 127.143 21.9403C127.296 21.8641 127.448 21.8005 127.601 21.7497C127.906 21.6353 128.262 21.5399 128.669 21.4637C129.075 21.3747 129.577 21.2857 130.175 21.1967C131.014 21.0823 131.618 20.9552 131.986 20.8154C132.355 20.6756 132.539 20.4277 132.539 20.0718C132.539 19.754 132.425 19.4998 132.196 19.3091C131.98 19.1057 131.573 19.0041 130.976 19.0041C130.378 19.0041 129.927 19.1375 129.622 19.4045C129.317 19.6714 129.152 20.0718 129.126 20.6057H125.599C125.688 19.3218 126.171 18.2922 127.048 17.5169C127.938 16.7288 129.247 16.3347 130.976 16.3347C131.586 16.3347 132.132 16.3792 132.615 16.4682C133.111 16.5572 133.537 16.6906 133.893 16.8686C134.63 17.2118 135.158 17.7012 135.475 18.3367C135.793 18.9723 135.952 19.7159 135.952 20.5675V27.6222H133.092ZM85.6061 47.4657L82.7079 43.3473V51.6222H79.3713V37.9514H82.5363L85.873 42.7181L89.2097 37.9705H92.3366V51.6222H88.9999V43.3282L86.0446 47.4657H85.6061ZM98.7646 49.3723C98.9934 49.3723 99.2095 49.3469 99.4129 49.2961C99.6162 49.2452 99.8069 49.1626 99.9849 49.0482C100.328 48.8321 100.595 48.5588 100.786 48.2283C100.989 47.8851 101.091 47.5356 101.091 47.1797V46.5123C100.925 46.6394 100.716 46.7411 100.462 46.8174C100.22 46.8937 99.934 46.9636 99.6035 47.0271C99.1332 47.1161 98.7837 47.1924 98.5549 47.2559C98.3261 47.3195 98.1227 47.4085 97.9447 47.5229C97.7922 47.6373 97.6778 47.7707 97.6015 47.9233C97.5253 48.0631 97.4871 48.222 97.4871 48.3999C97.4871 48.7177 97.5952 48.9592 97.8113 49.1245C98.0273 49.2897 98.3451 49.3723 98.7646 49.3723ZM101.625 51.6222L101.243 49.7727C100.925 50.3956 100.455 50.9104 99.8323 51.3171C99.2095 51.7112 98.3833 51.9082 97.3537 51.9082C96.1588 51.9082 95.2627 51.6413 94.6653 51.1074C94.0805 50.5735 93.7882 49.849 93.7882 48.9338C93.7882 48.2601 93.9153 47.7072 94.1695 47.275C94.4365 46.8301 94.7924 46.4678 95.2373 46.1882C95.3898 46.0992 95.536 46.0166 95.6758 45.9403C95.8283 45.8641 95.9809 45.8005 96.1334 45.7497C96.4385 45.6353 96.7944 45.5399 97.2011 45.4637C97.6079 45.3747 98.11 45.2857 98.7074 45.1967C99.5463 45.0823 100.15 44.9552 100.519 44.8154C100.887 44.6756 101.072 44.4277 101.072 44.0718C101.072 43.754 100.957 43.4998 100.728 43.3091C100.512 43.1057 100.106 43.0041 99.5082 43.0041C98.9108 43.0041 98.4595 43.1375 98.1545 43.4045C97.8494 43.6714 97.6841 44.0718 97.6587 44.6057H94.1314C94.2204 43.3218 94.7034 42.2922 95.5805 41.5169C96.4702 40.7288 97.7795 40.3347 99.5082 40.3347C100.118 40.3347 100.665 40.3792 101.148 40.4682C101.644 40.5572 102.069 40.6906 102.425 40.8686C103.163 41.2118 103.69 41.7012 104.008 42.3367C104.326 42.9723 104.485 43.7159 104.485 44.5675V51.6222H101.625ZM109.821 51.6222H106.313V36.9409H109.821V51.6222ZM115.258 51.6222H111.75V36.9409H115.258V51.6222Z" fill="white"/>
<path d="M65 0H0V65H65V0Z" fill="#A6F20D"/>
<path d="M46.631 33.821C45.5664 33.821 44.6698 34.7174 44.6698 35.782C44.6698 36.8465 45.5104 37.687 46.631 37.687C47.6957 37.687 48.5362 36.8465 48.5362 35.782C48.5922 34.7174 47.6957 33.821 46.631 33.821ZM46.631 39.8161C44.3897 39.8161 42.5405 38.0231 42.5405 35.782C42.5405 33.5408 44.3897 31.7479 46.631 31.7479C48.8724 31.7479 50.6655 33.5408 50.6655 35.782C50.7216 38.0231 48.8724 39.8161 46.631 39.8161Z" fill="#070708"/>
<path d="M32.028 50.314H29.8987V43.0303H32.028V50.314Z" fill="#070708"/>
<path d="M35.1099 50.3139H32.9806V43.0302H35.1099V50.3139Z" fill="#070708"/>
<path d="M41.8169 18.2612L43.8902 16.1882L42.3772 14.6754L40.304 16.7485L38.791 18.2612L41.4807 20.9506L39.4074 23.0237L40.9203 24.5365L44.5065 20.9506L41.8169 18.2612Z" fill="#070708"/>
<path d="M18.2154 35.7631L19.224 37.5H17.2068L18.2154 35.7631ZM18.2154 31.729L13.7327 39.461H22.6982L18.2154 31.729Z" fill="#070708"/>
<path d="M27.5609 16.9721L26.048 15.4593L23.4704 18.0367L20.8928 15.4593L19.3799 16.9721L21.9575 19.5495L19.3799 22.1268L20.8928 23.6395L23.4704 21.0622L26.048 23.6395L27.5609 22.1268L24.9833 19.5495L27.5609 16.9721Z" fill="#070708"/>
</svg>
